<svg xmlns="http://www.w3.org/2000/svg" version="1.1" xmlns:xlink="http://www.w3.org/1999/xlink" xmlns:svgjs="http://svgjs.dev/svgjs" width="100%" height="100%" viewBox="0 0 1000 600"><rect width="1000" height="600" x="0" y="0" fill="#ffffff"/><g><circle r="166.66666666666666" cx="392.58007303873694" cy="414.8022900910377" fill="#8f43ee" transform="matrix(0.5533093373832503,0,0,0.5533093373832503,0,70.48601028142224)"/><path d="M454.13968227989363 489.8022868948478L414.5563490630715 489.8022868948478L415.80056202237216 457.10552773182945L381.0204695321527 457.10552773182945L370.80634919184695 489.8022868948478L331.0204696793246 489.8022868948478L384.55056211435465 339.8022873363637L453.30056191199316 339.8022873363637L454.13968227989363 489.8022868948478ZM419.128108308874 376.2606205623841L406.02046945856665 376.2606205623841L389.55634913665745 429.1830741103138L416.84222868597277 429.1830741103138L419.128108308874 376.2606205623841Z " fill="#ffffff" transform="matrix(0.5533093373832503,0,0,0.5533093373832503,0,70.48601028142224)"/><path d="M742.4555902182618 406.4393133773136L737.2537406294085 436.3966317787607L686.1689100516959 436.3966317787607L677.3391038265144 487.1079962321454L642.5800781122795 487.1079962321454L666.9620808005456 348.8188256238623L763.3963693323634 348.8188256238623L758.0077866813461 378.77614402530946L696.1724669533368 378.77614402530946L691.3707596405492 406.4393133773136L742.4555902182618 406.4393133773136ZM844.4385183115231 457.5241439550262L844.4385183115231 457.5241439550262Q844.4385183115231 462.51258432997776 849.5336632934255 462.51258432997776Q854.6288082753277 462.51258432997776 858.0700318494922 460.59190140486277L858.0700318494922 460.59190140486277L857.1096903869349 482.30628891935777Q847.9064180374252 489.802287557654 836.382320486735 489.802287557654L836.382320486735 489.802287557654Q815.2548083104695 489.802287557654 812.9339831092888 474.4368241567337L812.9339831092888 474.4368241567337Q803.3305684837136 489.802287557654 784.7106145707927 489.802287557654L784.7106145707927 489.802287557654Q753.2060793685586 489.802287557654 753.2060793685586 462.72599354387944L753.2060793685586 462.72599354387944Q753.2060793685586 458.1110192932558 754.1664208311159 452.53570358007465L754.1664208311159 452.53570358007465L758.1945197435101 430.0743838169237Q761.2622771933467 412.7882374908883 772.306204012758 402.49124292013266Q783.3501308321696 392.2209245011147 801.1164478894838 392.2209245011147Q818.8827649467979 392.2209245011147 825.2316890603726 400.4905315398045L825.2316890603726 400.4905315398045L826.1920305229302 394.7284827644594L855.3757405239836 394.7284827644594L844.6252513736871 455.2299949055832Q844.4385183115231 456.37706943030474 844.4385183115231 457.5241439550262ZM790.0725210700722 433.9157496671538L787.5916389584653 448.32087160551663Q787.1914966823996 450.02814531673 787.1914966823996 453.1225789183042Q787.1914966823996 456.1903363681408 790.0725210700722 459.15138921102647Q792.9535454577448 462.1391182056498 799.7826403025982 462.1391182056498Q806.6117351474517 462.1391182056498 811.6001755224034 456.7505355546327L811.6001755224034 456.7505355546327L817.3622242977484 424.49906810374256Q815.2548083104695 419.697360790955 807.3586673961075 419.697360790955L807.3586673961075 419.697360790955Q792.5800793334168 419.697360790955 790.0725210700722 433.9157496671538L790.0725210700722 433.9157496671538ZM934.7106157919301 394.7284827644594L967.3622255188858 394.7284827644594Q970.0565168443944 402.7846805892475 970.0565168443944 416.14943260983966Q970.0565168443944 429.4875084786941 966.7753501806561 441.78521442977797Q963.5208596686558 454.08292038086176 956.9051740377039 465.12684720027323Q950.2628122550144 476.17077401968476 938.4452770352094 482.97319271280054Q926.654417967142 489.802287557654 911.2889545662216 489.802287557654L911.2889545662216 489.802287557654Q887.2804180022837 489.802287557654 878.0504695010362 480.01213986991485L878.0504695010362 480.01213986991485Q871.9149546013633 473.4764826941761 871.9149546013633 460.03170221837087L871.9149546013633 460.03170221837087Q871.9149546013633 453.6827781047961 873.4354952504126 445.626580280008L873.4354952504126 445.626580280008L882.4787106894959 394.7284827644594L915.1303204164518 394.7284827644594L906.0871049773683 445.81331334217197Q905.5269057908764 448.69433772984456 905.5269057908764 450.9884867792875L905.5269057908764 450.9884867792875Q905.5269057908764 461.95238514348586 916.837594127665 461.95238514348586L916.837594127665 461.95238514348586Q936.818031779209 461.95238514348586 936.818031779209 420.07082691528285L936.818031779209 420.07082691528285Q936.818031779209 410.28067922754366 935.2974911301598 398.3831155525255L935.2974911301598 398.3831155525255L934.7106157919301 394.7284827644594ZM1021.328080484271 462.51258432997776L1021.328080484271 462.51258432997776Q1025.7563216727308 462.51258432997776 1029.197545246895 460.59190140486277L1029.197545246895 460.59190140486277L1028.2372037843375 482.30628891935777Q1019.2206644969918 489.802287557654 1007.6965669463017 489.802287557654L1007.6965669463017 489.802287557654Q990.2236875581024 489.802287557654 985.0218379692491 481.7194135811282L985.0218379692491 481.7194135811282Q981.5806143950846 476.3575070818487 981.5806143950846 470.3020206373888Q981.5806143950846 464.2465341929289 982.3542227954782 459.6315599423052L982.3542227954782 459.6315599423052L993.8783203461684 394.7284827644594L1026.5299300731244 394.7284827644594L1015.7527647710898 455.2299949055832Q1015.5660317089258 456.37706943030474 1015.5660317089258 457.33741089286224L1015.5660317089258 457.33741089286224Q1015.5660317089258 462.51258432997776 1021.328080484271 462.51258432997776ZM997.7196861963986 363.4106806243891L997.7196861963986 363.4106806243891Q997.7196861963986 351.1129746733053 1003.1882973026289 345.457630504911Q1008.6569084088593 339.8022863365167 1020.1810059595495 339.8022863365167L1020.1810059595495 339.8022863365167Q1036.3200777608636 339.8022863365167 1036.3200777608636 353.99399906097784L1036.3200777608636 353.99399906097784Q1036.3200777608636 366.1049719498977 1030.851466654633 371.68028766307884Q1025.356179396665 377.25560337626 1013.6453487838108 377.25560337626L1013.6453487838108 377.25560337626Q997.7196861963986 377.25560337626 997.7196861963986 363.4106806243891ZM1079.7221766381158 489.802287557654L1079.7221766381158 489.802287557654Q1039.7613013350278 489.802287557654 1039.7613013350278 462.1391182056498L1039.7613013350278 462.1391182056498Q1039.7613013350278 458.29775235541973 1040.5349097354215 453.8695111669601L1040.5349097354215 453.8695111669601L1044.5630086478154 430.0743838169237Q1047.6574422493895 411.61448681442914 1061.368984242572 401.82433912668995Q1075.1072023874922 392.0341914389508 1096.2347145637577 391.84745837678685L1096.2347145637577 391.84745837678685Q1137.1559313294033 391.84745837678685 1137.1559313294033 420.2575599774468L1137.1559313294033 420.2575599774468Q1137.1559313294033 426.4197510288576 1135.7154191355667 431.30148679685834Q1134.2749069417305 436.2098987165968 1132.7276901409437 437.9438485795478L1132.7276901409437 437.9438485795478L1131.2071494918941 439.8645315046629L1098.5555397649382 439.8645315046629Q1103.3572470777258 435.6230233783672 1103.3572470777258 429.86097460302204L1103.3572470777258 429.86097460302204Q1103.3572470777258 419.510627728791 1092.980224051757 419.510627728791L1092.980224051757 419.510627728791Q1086.8180330003465 419.510627728791 1082.4164679636247 423.1385843651194Q1077.9882267751645 426.79321715318554 1076.6544191882795 434.2892157914817L1076.6544191882795 434.2892157914817L1074.1468609249346 448.32087160551663Q1073.7733948006066 450.2415545306317 1073.7733948006066 451.94882824184504L1073.7733948006066 451.94882824184504Q1073.7733948006066 462.1391182056498 1086.4445668760186 462.1391182056498L1086.4445668760186 462.1391182056498Q1090.6593988505765 462.1391182056498 1094.020593969528 459.44482688014125Q1097.3817890884793 456.7505355546327 1097.968664426709 453.49604504263215L1097.968664426709 453.49604504263215L1129.8466657532708 453.8695111669601Q1123.5244177914337 489.802287557654 1079.7221766381158 489.802287557654ZM1203.9796914323638 392.0341914389508L1203.9796914323638 392.0341914389508Q1224.7337374843014 392.0341914389508 1235.2974935724342 401.0507307262964L1235.2974935724342 401.0507307262964Q1243.5671006111243 408.1732632402647 1243.5671006111243 420.84443531567644L1243.5671006111243 420.84443531567644Q1243.5671006111243 425.05926729023446 1242.6067591485667 430.0743838169237L1242.6067591485667 430.0743838169237L1238.551984084435 452.53570358007465Q1234.9240274481062 472.88960735594657 1221.559275427514 481.3459474568003Q1208.2211995586595 489.802287557654 1185.9466128576728 489.802287557654Q1163.6453500049479 489.802287557654 1153.2950031307169 481.3459474568003L1153.2950031307169 481.3459474568003Q1145.612271430257 474.9970233432255 1145.612271430257 462.3258512678138L1145.612271430257 462.3258512678138Q1145.612271430257 457.92428623109186 1146.5726128928145 452.53570358007465L1146.5726128928145 452.53570358007465L1150.6007118052084 430.0743838169237Q1157.3231020431112 392.0341914389508 1203.9796914323638 392.0341914389508ZM1206.6739827578726 448.32087160551663L1209.1815410212175 433.9157496671538Q1209.555007145545 431.9950667420388 1209.555007145545 429.00733774741536Q1209.555007145545 426.01960875279195 1207.0741250339383 422.39165211646355Q1204.5665667705935 418.7370193283974 1198.3243472639697 418.7370193283974Q1192.082127757346 418.7370193283974 1187.867295782788 422.8718228477423Q1183.6257876564919 426.97995021534945 1182.4787131317707 433.9157496671538L1182.4787131317707 433.9157496671538L1179.9711548684259 448.32087160551663Q1179.597688744098 450.2415545306317 1179.597688744098 453.20260737351737Q1179.597688744098 456.1903363681408 1182.1052470074428 459.6315599423052Q1184.5861291190495 463.0994596682074 1190.8283486256732 463.0994596682074Q1197.0705681322975 463.0994596682074 1201.3120762585932 458.77792308669854Q1205.526908233151 454.4563865051897 1206.6739827578726 448.32087160551663L1206.6739827578726 448.32087160551663ZM1316.7397848276596 428.1537008918087L1316.7397848276596 428.1537008918087Q1316.7397848276596 419.8840938531189 1308.7636154580846 419.8840938531189Q1300.7874460885096 419.8840938531189 1295.612272651394 425.832875690628L1295.612272651394 425.832875690628L1284.8617835010973 487.1079962321454L1252.2101737741418 487.1079962321454L1268.5359786376198 394.7284827644594L1298.8667631633948 394.7284827644594L1296.7593471761156 406.0658472529857Q1308.096711664642 392.0341914389508 1325.3828579906772 392.0341914389508Q1342.6690043167127 392.0341914389508 1347.8441777538283 400.4905315398045L1347.8441777538283 400.4905315398045Q1351.1253444175663 405.852438039084 1351.1253444175663 412.7882374908883Q1351.1253444175663 419.697360790955 1350.1650029550092 425.646142628464L1350.1650029550092 425.646142628464L1344.963153366156 455.2299949055832Q1344.776420303992 456.37706943030474 1344.776420303992 457.33741089286224L1344.776420303992 457.33741089286224Q1344.776420303992 462.51258432997776 1350.5384690793367 462.51258432997776L1350.5384690793367 462.51258432997776Q1354.9667102677968 462.51258432997776 1358.407933841961 460.59190140486277L1358.407933841961 460.59190140486277L1357.4475923794034 482.30628891935777Q1348.431053092058 489.802287557654 1336.9069555413676 489.802287557654L1336.9069555413676 489.802287557654Q1310.7910029901504 489.802287557654 1310.7910029901504 467.901166980995L1310.7910029901504 467.901166980995Q1310.7910029901504 464.0598011307649 1311.5379352388063 459.6315599423052L1311.5379352388063 459.6315599423052L1316.15290948943 434.1024827293177Q1316.7397848276596 430.63458300341557 1316.7397848276596 428.1537008918087ZM1366.4908078184867 475.9573648057831L1366.4908078184867 475.9573648057831Q1366.4908078184867 463.686335006437 1371.8527143177662 458.004314686305Q1377.2412969687834 452.3489705179107 1388.9521275816378 452.3489705179107L1388.9521275816378 452.3489705179107Q1405.0911993829513 452.3489705179107 1405.0911993829513 466.56735939410953L1405.0911993829513 466.56735939410953Q1405.0911993829513 478.65165613129165 1399.6225882767217 484.22697184447287Q1394.1273010187533 489.802287557654 1382.416470405899 489.802287557654L1382.416470405899 489.802287557654Q1366.4908078184867 489.802287557654 1366.4908078184867 475.9573648057831ZM1464.819103123682 462.51258432997776L1464.819103123682 462.51258432997776Q1469.2473443121416 462.51258432997776 1472.688567886306 460.59190140486277L1472.688567886306 460.59190140486277L1471.7282264237488 482.30628891935777Q1462.7116871364028 489.802287557654 1451.1875895857129 489.802287557654L1451.1875895857129 489.802287557654Q1433.7147101975133 489.802287557654 1428.51286060866 481.7194135811282L1428.51286060866 481.7194135811282Q1425.0716370344958 476.3575070818487 1425.0716370344958 470.3020206373888Q1425.0716370344958 464.2465341929289 1425.8185692831516 459.6315599423052L1425.8185692831516 459.6315599423052L1437.3426668338416 394.7284827644594L1469.9942765607975 394.7284827644594L1459.2437874105008 455.2299949055832Q1459.0570543483368 456.37706943030474 1459.0570543483368 457.33741089286224L1459.0570543483368 457.33741089286224Q1459.0570543483368 462.51258432997776 1464.819103123682 462.51258432997776ZM1441.1840326840716 363.4106806243891L1441.1840326840716 363.4106806243891Q1441.1840326840716 351.1129746733053 1446.67931994204 345.457630504911Q1452.14793104827 339.8022863365167 1463.6720285989604 339.8022863365167L1463.6720285989604 339.8022863365167Q1479.8111004002744 339.8022863365167 1479.8111004002744 353.99399906097784L1479.8111004002744 353.99399906097784Q1479.8111004002744 366.1049719498977 1474.3158131423065 371.68028766307884Q1468.847202036076 377.25560337626 1457.136371423222 377.25560337626L1457.136371423222 377.25560337626Q1441.1840326840716 377.25560337626 1441.1840326840716 363.4106806243891ZM1541.8331531904478 392.0341914389508L1541.8331531904478 392.0341914389508Q1562.5871992423854 392.0341914389508 1573.1509553305177 401.0507307262964L1573.1509553305177 401.0507307262964Q1581.39388621747 408.1732632402647 1581.39388621747 420.84443531567644L1581.39388621747 420.84443531567644Q1581.39388621747 425.05926729023446 1580.4335447549124 430.0743838169237L1580.4335447549124 430.0743838169237L1576.4054458425185 452.53570358007465Q1572.7508130544525 472.88960735594657 1559.412737185598 481.3459474568003Q1546.0746613167435 489.802287557654 1523.7733984640186 489.802287557654Q1501.4988117630319 489.802287557654 1491.121788737063 481.3459474568003L1491.121788737063 481.3459474568003Q1483.4390570366027 474.9970233432255 1483.4390570366027 462.3258512678138L1483.4390570366027 462.3258512678138Q1483.4390570366027 457.92428623109186 1484.3993984991603 452.53570358007465L1484.3993984991603 452.53570358007465L1488.454173563292 430.0743838169237Q1495.1765638011948 392.0341914389508 1541.8331531904478 392.0341914389508ZM1544.5274445159562 448.32087160551663L1547.035002779301 433.9157496671538Q1547.408468903629 431.9950667420388 1547.408468903629 429.00733774741536Q1547.408468903629 426.01960875279195 1544.900910640284 422.39165211646355Q1542.4200285286774 418.7370193283974 1536.1778090220532 418.7370193283974Q1529.9355895154295 418.7370193283974 1525.6940813891338 422.8718228477423Q1521.4792494145759 426.97995021534945 1520.3321748898543 433.9157496671538L1520.3321748898543 433.9157496671538L1517.8246166265094 448.32087160551663Q1517.4511505021815 450.2415545306317 1517.4511505021815 453.20260737351737Q1517.4511505021815 456.1903363681408 1519.9320326137886 459.6315599423052Q1522.439590877133 463.0994596682074 1528.6818103837572 463.0994596682074Q1534.924029890381 463.0994596682074 1539.138861864939 458.77792308669854Q1543.3803699912346 454.4563865051897 1544.5274445159562 448.32087160551663L1544.5274445159562 448.32087160551663Z " fill="#8aaae5" transform="matrix(0.5533093373832503,0,0,0.5533093373832503,0,70.48601028142224)"/></g></svg>